<svg viewBox="0 0 16 16" xmlns="http://www.w3.org/2000/svg" class="context-menu__option-icon"><path d="M3.772 16.002c-1.036 0-1.924-.367-2.663-1.1C.369 14.168 0 13.289 0 12.262c0-1.025.37-1.919 1.109-2.68L4.095 6.63c.943-.916 1.895-1.434 2.854-1.555.96-.122 1.812.173 2.557.885a.98.98 0 0 1 .298.703.923.923 0 0 1-.29.695.962.962 0 0 1-.703.298.948.948 0 0 1-.695-.29c-.441-.37-.902-.444-1.382-.223-.48.22-.893.521-1.24.902l-2.987 2.953a1.731 1.731 0 0 0-.521 1.258c0 .485.176.901.529 1.249.353.347.772.521 1.257.521.486 0 .91-.174 1.275-.521l.81-.811a.966.966 0 0 1 1.398.017c.193.215.29.45.29.703 0 .253-.097.485-.29.695l-.81.794c-.75.733-1.641 1.1-2.673 1.1zm11.12-14.8C15.63 1.957 16 2.848 16 3.874c0 1.026-.37 1.908-1.109 2.647L11.715 9.69c-.988.976-1.986 1.464-2.995 1.464-.822 0-1.564-.33-2.226-.993a.98.98 0 0 1-.298-.703c0-.264.1-.496.298-.695a.98.98 0 0 1 1.39-.016c.15.198.411.336.786.413.375.078.924-.217 1.646-.885l3.177-3.152c.348-.347.521-.764.521-1.249 0-.49-.17-.913-.512-1.266-.342-.353-.72-.554-1.134-.604-.408-.05-.813.089-1.216.414l-1.01 1.01a.966.966 0 0 1-1.397-.017c-.199-.215-.295-.45-.29-.704.006-.253.102-.485.29-.694l1.009-1.001c.739-.706 1.58-1.043 2.523-1.01.943.033 1.815.433 2.614 1.2z"></path></svg>